<svg xmlns="http://www.w3.org/2000/svg" viewBox="0 0 32 32" width="32" height="32">
  <!-- Background -->
  <rect width="32" height="32" rx="4" fill="#3498db"/>
  
  <!-- Calendar/Schedule Grid -->
  <rect x="4" y="6" width="24" height="20" rx="2" fill="#ffffff"/>
  
  <!-- Header bar -->
  <rect x="4" y="6" width="24" height="4" rx="2" fill="#2c3e50"/>
  
  <!-- Grid lines (horizontal) -->
  <line x1="6" y1="14" x2="26" y2="14" stroke="#e0e0e0" stroke-width="0.5"/>
  <line x1="6" y1="18" x2="26" y2="18" stroke="#e0e0e0" stroke-width="0.5"/>
  <line x1="6" y1="22" x2="26" y2="22" stroke="#e0e0e0" stroke-width="0.5"/>
  
  <!-- Grid lines (vertical) -->
  <line x1="12" y1="10" x2="12" y2="26" stroke="#e0e0e0" stroke-width="0.5"/>
  <line x1="18" y1="10" x2="18" y2="26" stroke="#e0e0e0" stroke-width="0.5"/>
  <line x1="24" y1="10" x2="24" y2="26" stroke="#e0e0e0" stroke-width="0.5"/>
  
  <!-- Colored schedule blocks -->
  <rect x="7" y="11" width="4" height="2.5" rx="0.5" fill="#e74c3c"/>
  <rect x="13" y="11" width="4" height="2.5" rx="0.5" fill="#27ae60"/>
  <rect x="19" y="11" width="4" height="2.5" rx="0.5" fill="#9b59b6"/>
  
  <rect x="7" y="15" width="4" height="2.5" rx="0.5" fill="#f39c12"/>
  <rect x="13" y="15" width="4" height="2.5" rx="0.5" fill="#3498db"/>
  <rect x="19" y="15" width="4" height="2.5" rx="0.5" fill="#e91e63"/>
  
  <rect x="7" y="19" width="4" height="2.5" rx="0.5" fill="#00bcd4"/>
  <rect x="13" y="19" width="4" height="2.5" rx="0.5" fill="#8bc34a"/>
  
  <!-- Small dots for binding -->
  <circle cx="8" cy="8" r="0.8" fill="#95a5a6"/>
  <circle cx="24" cy="8" r="0.8" fill="#95a5a6"/>
</svg>
